<svg width="30" height="30" viewBox="0 0 30 30" fill="none" xmlns="http://www.w3.org/2000/svg">
<path fill-rule="evenodd" clip-rule="evenodd" d="M9.0725 4.0625C5.64762 4.0625 2.93293 6.95216 3.14657 10.3704L3.77157 20.3704C3.83056 21.3143 4.10858 22.1974 4.55483 22.9692C5.58357 24.7486 7.50817 25.9375 9.6975 25.9375H20.3701C22.5572 25.9375 24.4832 24.7503 25.5128 22.9692C25.5389 22.924 25.5612 22.8767 25.5795 22.8278L26.9786 19.0786C27.3871 17.984 27.247 16.8565 26.7321 15.9489C26.7692 15.848 26.7895 15.7388 26.7895 15.625V13.9612C27.0237 10.6404 24.3925 7.8125 21.0582 7.8125H18.1252C17.6075 7.8125 17.1877 7.39277 17.1877 6.875C17.1877 5.3217 15.9285 4.0625 14.3752 4.0625H9.0725ZM18.7759 14.0625C18.3602 14.0625 18.0439 13.6892 18.1123 13.2791C18.3711 11.7262 17.1735 10.3125 15.5992 10.3125H11.6231C8.78086 10.3125 6.3403 12.3337 5.8107 15.1262L5.51407 16.6902L5.44155 17.0316L5.01791 10.2534C4.87174 7.91464 6.72917 5.9375 9.0725 5.9375H14.3752C14.893 5.9375 15.3127 6.35723 15.3127 6.875C15.3127 8.4283 16.5719 9.6875 18.1252 9.6875H21.0582C23.3128 9.6875 25.0902 11.6069 24.9173 13.8548C24.9155 13.8788 24.9145 13.9027 24.9145 13.9267V14.3396C24.4823 14.1617 24.0051 14.0625 23.4974 14.0625H18.7759Z" fill="black"/>
</svg>
