<svg width="30" height="30" viewBox="0 0 30 30" fill="none" xmlns="http://www.w3.org/2000/svg">
<path fill-rule="evenodd" clip-rule="evenodd" d="M11.8764 4.99898L4.7907 10.6676C3.37626 11.7991 2.68442 13.6072 2.98221 15.3939L4.30359 23.3222C4.70541 25.7331 6.79136 27.5002 9.23556 27.5002H20.7643C23.2085 27.5002 25.2944 25.7331 25.6963 23.3222L27.0176 15.3939C27.3154 13.6072 26.6236 11.7991 25.2091 10.6676L18.1234 4.99898C16.2973 3.5381 13.7025 3.5381 11.8764 4.99898ZM13.6747 19.807L12.7685 21.0757C11.999 22.153 12.769 23.6493 14.0928 23.6493H15.9053C17.2291 23.6493 17.9991 22.153 17.2297 21.0757L16.3234 19.807C15.6743 18.8983 14.3238 18.8983 13.6747 19.807Z" fill="black"/>
</svg>
