<svg width="30" height="30" viewBox="0 0 30 30" fill="none" xmlns="http://www.w3.org/2000/svg">
<path d="M14.0625 2.90723V27.4562C9.38673 27.0215 5 23.3593 5 17.4998C5 8.43467 10.8112 4.47359 13.5737 3.10276C13.733 3.02369 13.8964 2.95851 14.0625 2.90723Z" fill="black"/>
<path d="M15.9375 2.90731V9.61753L21.0779 6.61898C19.4395 4.80577 17.6389 3.70461 16.426 3.10275C16.2668 3.02373 16.1035 2.95858 15.9375 2.90731Z" fill="black"/>
<path d="M22.2555 8.1027L15.9375 11.7882V15.2516L23.7177 10.763C23.2987 9.77056 22.7997 8.8871 22.2555 8.1027Z" fill="black"/>
<path d="M24.3484 12.5638L15.9375 17.4162V21.5021L24.9648 16.2973C24.884 14.9303 24.6667 13.6891 24.3484 12.5638Z" fill="black"/>
<path d="M24.9592 18.4649L15.9375 23.6664V27.4561C20.3509 27.0457 24.5068 23.7599 24.9592 18.4649Z" fill="black"/>
</svg>
