<svg width="30" height="30" viewBox="0 0 30 30" fill="none" xmlns="http://www.w3.org/2000/svg">
<path d="M13.3293 27.3116C11.3198 27.0813 9.55548 26.4433 8.29077 25.5487C6.22871 24.2345 4.5779 22.3322 3.57456 20.0781C3.3512 19.5763 3.65167 19.0112 4.18221 18.869C4.65463 18.7424 5.1414 18.9999 5.3462 19.444C5.63997 20.0811 5.99496 20.6842 6.40362 21.2457C7.17167 18.8457 10.7283 17.031 14.9999 17.031C19.2716 17.031 22.8283 18.8458 23.5963 21.2458C24.8723 19.4927 25.625 17.3342 25.625 15C25.625 9.13197 20.868 4.375 15 4.375C14.67 4.375 14.3436 4.39004 14.0213 4.41948C13.5347 4.46392 13.0691 4.17108 12.9426 3.69911C12.8004 3.16821 13.1401 2.62524 13.6867 2.56816C14.1183 2.5231 14.5565 2.5 15 2.5C21.9036 2.5 27.5 8.09644 27.5 15C27.5 19.4351 25.1902 23.3307 21.708 25.5495C21.0604 26.0074 20.2819 26.398 19.4066 26.7011C18.0362 27.2175 16.5511 27.5 15 27.5C14.5565 27.5 14.1183 27.4769 13.6867 27.4318C13.5541 27.418 13.4336 27.3755 13.3293 27.3116Z" fill="black"/>
<path d="M2.56816 16.3132C2.62523 16.8599 3.1682 17.1996 3.69911 17.0573C4.17107 16.9309 4.46391 16.4653 4.41947 15.9787C4.39004 15.6564 4.375 15.33 4.375 15C4.375 14.67 4.39004 14.3435 4.41948 14.0212C4.46393 13.5346 4.17109 13.069 3.69912 12.9425C3.16822 12.8003 2.62525 13.14 2.56817 13.6867C2.5231 14.1183 2.5 14.5564 2.5 15C2.5 15.4435 2.5231 15.8816 2.56816 16.3132Z" fill="black"/>
<path d="M3.5746 9.9218C3.35123 10.4236 3.65172 10.9887 4.18227 11.1308C4.65469 11.2574 5.14145 11 5.34624 10.5559C5.62112 9.95977 5.94958 9.39346 6.32546 8.86312C6.60829 8.46406 6.58796 7.91371 6.24209 7.56784C5.85394 7.1797 5.21477 7.20184 4.89147 7.64545C4.37664 8.35184 3.93407 9.11424 3.5746 9.9218Z" fill="black"/>
<path d="M7.64554 4.8914C7.20192 5.2147 7.17978 5.85388 7.56793 6.24203C7.91379 6.58789 8.46414 6.60823 8.8632 6.3254C9.39354 5.94953 9.95985 5.62108 10.556 5.34621C11.0001 5.14141 11.2575 4.65465 11.1309 4.18224C10.9888 3.65169 10.4237 3.35119 9.92189 3.57456C9.11433 3.93402 8.35193 4.37659 7.64554 4.8914Z" fill="black"/>
<path d="M20.4686 10.4687C20.4686 13.489 18.0202 15.9374 14.9999 15.9374C11.9796 15.9374 9.53117 13.489 9.53117 10.4687C9.53117 7.44843 11.9796 5 14.9999 5C18.0202 5 20.4686 7.44843 20.4686 10.4687Z" fill="black"/>
</svg>
